<svg xmlns="http://www.w3.org/2000/svg" style="display:none">
  <symbol id="i-home" viewBox="0 0 24 24" fill="none" stroke="currentColor" stroke-width="1.8" stroke-linecap="round" stroke-linejoin="round">
    <path d="M3 10.5 12 3l9 7.5"/>
    <path d="M5.5 9.8V21h13V9.8"/>
  </symbol>
  <symbol id="i-pencil" viewBox="0 0 24 24" fill="none" stroke="currentColor" stroke-width="1.8" stroke-linecap="round" stroke-linejoin="round">
    <path d="M12 20h9"/>
    <path d="M16.5 3.5a2.1 2.1 0 0 1 3 3L7 19l-4 1 1-4 12.5-12.5z"/>
  </symbol>
  <symbol id="i-file" viewBox="0 0 24 24" fill="none" stroke="currentColor" stroke-width="1.8" stroke-linecap="round" stroke-linejoin="round">
    <path d="M14 2H7a2 2 0 0 0-2 2v16a2 2 0 0 0 2 2h10a2 2 0 0 0 2-2V7z"/>
    <path d="M14 2v5h5"/>
  </symbol>
  <symbol id="i-layers" viewBox="0 0 24 24" fill="none" stroke="currentColor" stroke-width="1.8" stroke-linecap="round" stroke-linejoin="round">
    <path d="M12 2 2 7l10 5 10-5-10-5z"/>
    <path d="M2 12l10 5 10-5"/>
    <path d="M2 17l10 5 10-5"/>
  </symbol>
  <symbol id="i-message" viewBox="0 0 24 24" fill="none" stroke="currentColor" stroke-width="1.8" stroke-linecap="round" stroke-linejoin="round">
    <path d="M21 15a4 4 0 0 1-4 4H8l-5 3V7a4 4 0 0 1 4-4h10a4 4 0 0 1 4 4z"/>
  </symbol>
  <symbol id="i-image" viewBox="0 0 24 24" fill="none" stroke="currentColor" stroke-width="1.8" stroke-linecap="round" stroke-linejoin="round">
    <rect x="3" y="4" width="18" height="16" rx="2"/>
    <path d="M3 16l5-5 4 4 3-3 6 6"/>
    <path d="M8.5 9.5h.01"/>
  </symbol>
  <symbol id="i-folder" viewBox="0 0 24 24" fill="none" stroke="currentColor" stroke-width="1.8" stroke-linecap="round" stroke-linejoin="round">
    <path d="M3 6a2 2 0 0 1 2-2h5l2 2h7a2 2 0 0 1 2 2v10a2 2 0 0 1-2 2H5a2 2 0 0 1-2-2z"/>
  </symbol>
  <symbol id="i-tag" viewBox="0 0 24 24" fill="none" stroke="currentColor" stroke-width="1.8" stroke-linecap="round" stroke-linejoin="round">
    <path d="M20 13l-7 7-11-11V2h7z"/>
    <path d="M7.5 7.5h.01"/>
  </symbol>
  <symbol id="i-users" viewBox="0 0 24 24" fill="none" stroke="currentColor" stroke-width="1.8" stroke-linecap="round" stroke-linejoin="round">
    <path d="M17 21v-1a4 4 0 0 0-4-4H7a4 4 0 0 0-4 4v1"/>
    <path d="M10 12a4 4 0 1 0 0-8 4 4 0 0 0 0 8z"/>
    <path d="M21 21v-1a3 3 0 0 0-2.2-2.9"/>
    <path d="M17 4.1a4 4 0 0 1 0 7.8"/>
  </symbol>
  <symbol id="i-sliders" viewBox="0 0 24 24" fill="none" stroke="currentColor" stroke-width="1.8" stroke-linecap="round" stroke-linejoin="round">
    <path d="M4 21v-7"/>
    <path d="M4 10V3"/>
    <path d="M12 21v-9"/>
    <path d="M12 8V3"/>
    <path d="M20 21v-5"/>
    <path d="M20 12V3"/>
    <path d="M2 14h4"/>
    <path d="M10 12h4"/>
    <path d="M18 16h4"/>
  </symbol>
  <symbol id="i-plug" viewBox="0 0 24 24" fill="none" stroke="currentColor" stroke-width="1.8" stroke-linecap="round" stroke-linejoin="round">
    <path d="M12 22v-5"/>
    <path d="M9 8V2"/>
    <path d="M15 8V2"/>
    <path d="M7 8h10v6a5 5 0 0 1-10 0z"/>
  </symbol>
  <symbol id="i-palette" viewBox="0 0 24 24" fill="none" stroke="currentColor" stroke-width="1.8" stroke-linecap="round" stroke-linejoin="round">
    <path d="M12 3a9 9 0 1 0 0 18h1a3 3 0 0 0 0-6h-1a3 3 0 0 1 0-6z"/>
    <path d="M7.5 10.5h.01"/>
    <path d="M9.5 7.5h.01"/>
    <path d="M14.5 7.5h.01"/>
    <path d="M16.5 10.5h.01"/>
  </symbol>
  <symbol id="i-download" viewBox="0 0 24 24" fill="none" stroke="currentColor" stroke-width="1.8" stroke-linecap="round" stroke-linejoin="round">
    <path d="M21 15v4a2 2 0 0 1-2 2H5a2 2 0 0 1-2-2v-4"/>
    <path d="M7 10l5 5 5-5"/>
    <path d="M12 15V3"/>
  </symbol>
  <symbol id="i-upload" viewBox="0 0 24 24" fill="none" stroke="currentColor" stroke-width="1.8" stroke-linecap="round" stroke-linejoin="round">
    <path d="M21 15v4a2 2 0 0 1-2 2H5a2 2 0 0 1-2-2v-4"/>
    <path d="M17 8l-5-5-5 5"/>
    <path d="M12 3v12"/>
  </symbol>
  <symbol id="i-user" viewBox="0 0 24 24" fill="none" stroke="currentColor" stroke-width="1.8" stroke-linecap="round" stroke-linejoin="round">
    <path d="M20 21v-1a4 4 0 0 0-4-4H8a4 4 0 0 0-4 4v1"/>
    <path d="M12 12a4 4 0 1 0 0-8 4 4 0 0 0 0 8z"/>
  </symbol>
  <symbol id="i-log-out" viewBox="0 0 24 24" fill="none" stroke="currentColor" stroke-width="1.8" stroke-linecap="round" stroke-linejoin="round">
    <path d="M10 17l5-5-5-5"/>
    <path d="M15 12H3"/>
    <path d="M21 21V3a2 2 0 0 0-2-2h-6"/>
  </symbol>
  <symbol id="i-globe" viewBox="0 0 24 24" fill="none" stroke="currentColor" stroke-width="1.8" stroke-linecap="round" stroke-linejoin="round">
    <path d="M21 12a9 9 0 1 1-18 0 9 9 0 0 1 18 0z"/>
    <path d="M3 12h18"/>
    <path d="M12 3a14 14 0 0 1 0 18"/>
    <path d="M12 3a14 14 0 0 0 0 18"/>
  </symbol>
  <symbol id="i-gear" viewBox="0 0 24 24" fill="none" stroke="currentColor" stroke-width="1.8" stroke-linecap="round" stroke-linejoin="round">
    <path d="M12 15.3a3.3 3.3 0 1 0 0-6.6 3.3 3.3 0 0 0 0 6.6z"/>
    <path d="M19.4 15a1.9 1.9 0 0 0 .4 2.1l.1.1a2.2 2.2 0 0 1 0 3.1 2.2 2.2 0 0 1-3.1 0l-.1-.1a1.9 1.9 0 0 0-2.1-.4 1.9 1.9 0 0 0-1.1 1.7V22a2.2 2.2 0 0 1-4.4 0v-.2a1.9 1.9 0 0 0-1.1-1.7 1.9 1.9 0 0 0-2.1.4l-.1.1a2.2 2.2 0 0 1-3.1 0 2.2 2.2 0 0 1 0-3.1l.1-.1a1.9 1.9 0 0 0 .4-2.1 1.9 1.9 0 0 0-1.7-1.1H2a2.2 2.2 0 0 1 0-4.4h.2a1.9 1.9 0 0 0 1.7-1.1 1.9 1.9 0 0 0-.4-2.1l-.1-.1a2.2 2.2 0 0 1 0-3.1 2.2 2.2 0 0 1 3.1 0l.1.1a1.9 1.9 0 0 0 2.1.4 1.9 1.9 0 0 0 1.1-1.7V2a2.2 2.2 0 0 1 4.4 0v.2a1.9 1.9 0 0 0 1.1 1.7 1.9 1.9 0 0 0 2.1-.4l.1-.1a2.2 2.2 0 0 1 3.1 0 2.2 2.2 0 0 1 0 3.1l-.1.1a1.9 1.9 0 0 0-.4 2.1 1.9 1.9 0 0 0 1.7 1.1H22a2.2 2.2 0 0 1 0 4.4h-.2a1.9 1.9 0 0 0-1.7 1.1z"/>
  </symbol>
  <symbol id="i-book" viewBox="0 0 24 24" fill="none" stroke="currentColor" stroke-width="1.8" stroke-linecap="round" stroke-linejoin="round">
    <path d="M4 19.5A2.5 2.5 0 0 0 6.5 22H20"/>
    <path d="M4 4.5A2.5 2.5 0 0 1 6.5 2H20v20"/>
    <path d="M6.5 2v20"/>
  </symbol>
  <symbol id="i-link" viewBox="0 0 24 24" fill="none" stroke="currentColor" stroke-width="1.8" stroke-linecap="round" stroke-linejoin="round">
    <path d="M10 13a5 5 0 0 1 0-7l1-1a5 5 0 0 1 7 7l-1 1"/>
    <path d="M14 11a5 5 0 0 1 0 7l-1 1a5 5 0 0 1-7-7l1-1"/>
  </symbol>
  <symbol id="i-bell" viewBox="0 0 24 24" fill="none" stroke="currentColor" stroke-width="1.8" stroke-linecap="round" stroke-linejoin="round">
    <path d="M18 8a6 6 0 1 0-12 0c0 7-3 7-3 7h18s-3 0-3-7"/>
    <path d="M13.7 21a2 2 0 0 1-3.4 0"/>
  </symbol>
  <symbol id="i-shield" viewBox="0 0 24 24" fill="none" stroke="currentColor" stroke-width="1.8" stroke-linecap="round" stroke-linejoin="round">
    <path d="M12 22s8-4 8-10V5l-8-3-8 3v7c0 6 8 10 8 10z"/>
  </symbol>
  <symbol id="i-spark" viewBox="0 0 24 24" fill="none" stroke="currentColor" stroke-width="1.8" stroke-linecap="round" stroke-linejoin="round">
    <path d="M5 15l3-3 3 3 7-7"/>
    <path d="M19 10v5a2 2 0 0 1-2 2H5a2 2 0 0 1-2-2V7a2 2 0 0 1 2-2h6"/>
  </symbol>
  <symbol id="i-file-text" viewBox="0 0 24 24" fill="none" stroke="currentColor" stroke-width="1.8" stroke-linecap="round" stroke-linejoin="round">
    <path d="M14 2H7a2 2 0 0 0-2 2v16a2 2 0 0 0 2 2h10a2 2 0 0 0 2-2V7z"/>
    <path d="M14 2v5h5"/>
    <path d="M8 13h8"/>
    <path d="M8 17h6"/>
  </symbol>
  <symbol id="i-files" viewBox="0 0 24 24" fill="none" stroke="currentColor" stroke-width="1.8" stroke-linecap="round" stroke-linejoin="round">
    <path d="M14 3h5a2 2 0 0 1 2 2v14a2 2 0 0 1-2 2h-5"/>
    <path d="M4 5a2 2 0 0 1 2-2h8l3 3v15a2 2 0 0 1-2 2H6a2 2 0 0 1-2-2z"/>
    <path d="M14 3v5h5"/>
  </symbol>
  <symbol id="i-grid" viewBox="0 0 24 24" fill="none" stroke="currentColor" stroke-width="1.8" stroke-linecap="round" stroke-linejoin="round">
    <rect x="3" y="3" width="8" height="8" rx="2"/>
    <rect x="13" y="3" width="8" height="8" rx="2"/>
    <rect x="3" y="13" width="8" height="8" rx="2"/>
    <rect x="13" y="13" width="8" height="8" rx="2"/>
  </symbol>
  <symbol id="i-puzzle" viewBox="0 0 24 24" fill="none" stroke="currentColor" stroke-width="1.8" stroke-linecap="round" stroke-linejoin="round">
    <path d="M19 7h-2.3a2.7 2.7 0 0 0-5.4 0H9V5a2 2 0 0 0-2-2H5a2 2 0 0 0-2 2v2a2 2 0 0 0 2 2h2v2.3a2.7 2.7 0 0 1 0 5.4V21h2a2 2 0 0 0 2-2v-2h2.3a2.7 2.7 0 0 0 5.4 0H21v-2a2 2 0 0 0-2-2h-2v-2h2a2 2 0 0 0 2-2V7z"/>
  </symbol>
  <symbol id="i-sun" viewBox="0 0 24 24" fill="none" stroke="currentColor" stroke-width="1.8" stroke-linecap="round" stroke-linejoin="round">
    <path d="M12 18a6 6 0 1 0 0-12 6 6 0 0 0 0 12z"/>
    <path d="M12 2v2"/>
    <path d="M12 20v2"/>
    <path d="M4.9 4.9l1.4 1.4"/>
    <path d="M17.7 17.7l1.4 1.4"/>
    <path d="M2 12h2"/>
    <path d="M20 12h2"/>
    <path d="M4.9 19.1l1.4-1.4"/>
    <path d="M17.7 6.3l1.4-1.4"/>
  </symbol>
  <symbol id="i-moon" viewBox="0 0 24 24" fill="none" stroke="currentColor" stroke-width="1.8" stroke-linecap="round" stroke-linejoin="round">
    <path d="M21 13.3A8.3 8.3 0 0 1 10.7 3a6.9 6.9 0 1 0 10.3 10.3z"/>
  </symbol>
  <symbol id="i-monitor" viewBox="0 0 24 24" fill="none" stroke="currentColor" stroke-width="1.8" stroke-linecap="round" stroke-linejoin="round">
    <rect x="3" y="4" width="18" height="12" rx="2"/>
    <path d="M8 20h8"/>
    <path d="M12 16v4"/>
  </symbol>
  <symbol id="i-command" viewBox="0 0 24 24" fill="none" stroke="currentColor" stroke-width="1.8" stroke-linecap="round" stroke-linejoin="round">
    <path d="M9 9V6a3 3 0 1 1 6 0v3"/>
    <path d="M9 15v3a3 3 0 1 0 6 0v-3"/>
    <path d="M9 9H6a3 3 0 1 0 0 6h3"/>
    <path d="M15 9h3a3 3 0 1 1 0 6h-3"/>
    <path d="M9 9h6v6H9z"/>
  </symbol>
  <symbol id="i-plus" viewBox="0 0 24 24" fill="none" stroke="currentColor" stroke-width="1.8" stroke-linecap="round" stroke-linejoin="round">
    <path d="M12 5v14"/>
    <path d="M5 12h14"/>
  </symbol>
  <symbol id="i-trash" viewBox="0 0 24 24" fill="none" stroke="currentColor" stroke-width="1.8" stroke-linecap="round" stroke-linejoin="round">
    <path d="M3 6h18"/>
    <path d="M19 6v14a2 2 0 0 1-2 2H7a2 2 0 0 1-2-2V6"/>
    <path d="M8 6V4a2 2 0 0 1 2-2h4a2 2 0 0 1 2 2v2"/>
  </symbol>
  <symbol id="i-search" viewBox="0 0 24 24" fill="none" stroke="currentColor" stroke-width="1.8" stroke-linecap="round" stroke-linejoin="round">
    <circle cx="11" cy="11" r="8"/>
    <path d="M21 21l-4.35-4.35"/>
  </symbol>
  <symbol id="i-refresh" viewBox="0 0 24 24" fill="none" stroke="currentColor" stroke-width="1.8" stroke-linecap="round" stroke-linejoin="round">
    <path d="M21 2v6h-6"/>
    <path d="M3 12a9 9 0 0 1 15-6.7L21 8"/>
    <path d="M3 22v-6h6"/>
    <path d="M21 12a9 9 0 0 1-15 6.7L3 16"/>
  </symbol>
  <symbol id="i-maximize" viewBox="0 0 24 24" fill="none" stroke="currentColor" stroke-width="1.8" stroke-linecap="round" stroke-linejoin="round">
    <path d="M8 3H5a2 2 0 0 0-2 2v3"/>
    <path d="M21 8V5a2 2 0 0 0-2-2h-3"/>
    <path d="M3 16v3a2 2 0 0 0 2 2h3"/>
    <path d="M16 21h3a2 2 0 0 0 2-2v-3"/>
  </symbol>
  <symbol id="i-minimize" viewBox="0 0 24 24" fill="none" stroke="currentColor" stroke-width="1.8" stroke-linecap="round" stroke-linejoin="round">
    <path d="M8 3v3a2 2 0 0 1-2 2H3"/>
    <path d="M21 8h-3a2 2 0 0 1-2-2V3"/>
    <path d="M3 16h3a2 2 0 0 1 2 2v3"/>
    <path d="M16 21v-3a2 2 0 0 1 2-2h3"/>
  </symbol>
  <symbol id="i-sidebar" viewBox="0 0 24 24" fill="none" stroke="currentColor" stroke-width="1.8" stroke-linecap="round" stroke-linejoin="round">
    <rect x="3" y="3" width="18" height="18" rx="2"/>
    <path d="M9 3v18"/>
  </symbol>
  <symbol id="i-database" viewBox="0 0 24 24" fill="none" stroke="currentColor" stroke-width="1.8" stroke-linecap="round" stroke-linejoin="round">
    <ellipse cx="12" cy="5" rx="9" ry="3"/>
    <path d="M21 12c0 1.66-4 3-9 3s-9-1.34-9-3"/>
    <path d="M3 5v14c0 1.66 4 3 9 3s9-1.34 9-3V5"/>
  </symbol>
  <symbol id="i-code" viewBox="0 0 24 24" fill="none" stroke="currentColor" stroke-width="1.8" stroke-linecap="round" stroke-linejoin="round">
    <polyline points="16 18 22 12 16 6"/>
    <polyline points="8 6 2 12 8 18"/>
  </symbol>
  <symbol id="i-edit" viewBox="0 0 24 24" fill="none" stroke="currentColor" stroke-width="1.8" stroke-linecap="round" stroke-linejoin="round">
    <path d="M11 4H4a2 2 0 0 0-2 2v14a2 2 0 0 0 2 2h14a2 2 0 0 0 2-2v-7"/>
    <path d="M18.5 2.5a2.121 2.121 0 0 1 3 3L12 15l-4 1 1-4 9.5-9.5z"/>
  </symbol>
  <symbol id="i-eye" viewBox="0 0 24 24" fill="none" stroke="currentColor" stroke-width="1.8" stroke-linecap="round" stroke-linejoin="round">
    <path d="M1 12s4-8 11-8 11 8 11 8-4 8-11 8-11-8-11-8z"/>
    <circle cx="12" cy="12" r="3"/>
  </symbol>
  <symbol id="i-check" viewBox="0 0 24 24" fill="none" stroke="currentColor" stroke-width="1.8" stroke-linecap="round" stroke-linejoin="round">
    <polyline points="20 6 9 17 4 12"/>
  </symbol>
  <symbol id="i-x" viewBox="0 0 24 24" fill="none" stroke="currentColor" stroke-width="1.8" stroke-linecap="round" stroke-linejoin="round">
    <path d="M18 6L6 18"/>
    <path d="M6 6l12 12"/>
  </symbol>
  <symbol id="i-alert" viewBox="0 0 24 24" fill="none" stroke="currentColor" stroke-width="1.8" stroke-linecap="round" stroke-linejoin="round">
    <circle cx="12" cy="12" r="10"/>
    <path d="M12 8v4"/>
    <path d="M12 16h.01"/>
  </symbol>
  <symbol id="i-info" viewBox="0 0 24 24" fill="none" stroke="currentColor" stroke-width="1.8" stroke-linecap="round" stroke-linejoin="round">
    <circle cx="12" cy="12" r="10"/>
    <path d="M12 16v-4"/>
    <path d="M12 8h.01"/>
  </symbol>
  <symbol id="i-clock" viewBox="0 0 24 24" fill="none" stroke="currentColor" stroke-width="1.8" stroke-linecap="round" stroke-linejoin="round">
    <circle cx="12" cy="12" r="10"/>
    <polyline points="12 6 12 12 16 14"/>
  </symbol>
  <symbol id="i-star" viewBox="0 0 24 24" fill="none" stroke="currentColor" stroke-width="1.8" stroke-linecap="round" stroke-linejoin="round">
    <polygon points="12 2 15.09 8.26 22 9.27 17 14.14 18.18 21.02 12 17.77 5.82 21.02 7 14.14 2 9.27 8.91 8.26 12 2"/>
  </symbol>
  <symbol id="i-hash" viewBox="0 0 24 24" fill="none" stroke="currentColor" stroke-width="1.8" stroke-linecap="round" stroke-linejoin="round">
    <line x1="4" y1="9" x2="20" y2="9"/>
    <line x1="4" y1="15" x2="20" y2="15"/>
    <line x1="10" y1="3" x2="8" y2="21"/>
    <line x1="16" y1="3" x2="14" y2="21"/>
  </symbol>
  <symbol id="i-mail" viewBox="0 0 24 24" fill="none" stroke="currentColor" stroke-width="1.8" stroke-linecap="round" stroke-linejoin="round">
    <path d="M4 4h16c1.1 0 2 .9 2 2v12c0 1.1-.9 2-2 2H4c-1.1 0-2-.9-2-2V6c0-1.1.9-2 2-2z"/>
    <polyline points="22,6 12,13 2,6"/>
  </symbol>
  <symbol id="i-external" viewBox="0 0 24 24" fill="none" stroke="currentColor" stroke-width="1.8" stroke-linecap="round" stroke-linejoin="round">
    <path d="M18 13v6a2 2 0 0 1-2 2H5a2 2 0 0 1-2-2V8a2 2 0 0 1 2-2h6"/>
    <polyline points="15 3 21 3 21 9"/>
    <line x1="10" y1="14" x2="21" y2="3"/>
  </symbol>
  <symbol id="i-zap" viewBox="0 0 24 24" fill="none" stroke="currentColor" stroke-width="1.8" stroke-linecap="round" stroke-linejoin="round">
    <polygon points="13 2 3 14 12 14 11 22 21 10 12 10 13 2"/>
  </symbol>
  <symbol id="i-key" viewBox="0 0 24 24" fill="none" stroke="currentColor" stroke-width="1.8" stroke-linecap="round" stroke-linejoin="round">
    <path d="M21 2l-2 2m-7.61 7.61a5.5 5.5 0 1 1-7.778 7.778 5.5 5.5 0 0 1 7.777-7.777zm0 0L15.5 7.5m0 0l3 3L22 7l-3-3m-3.5 3.5L19 4"/>
  </symbol>
  <symbol id="i-save" viewBox="0 0 24 24" fill="none" stroke="currentColor" stroke-width="1.8" stroke-linecap="round" stroke-linejoin="round">
    <path d="M19 21H5a2 2 0 0 1-2-2V5a2 2 0 0 1 2-2h11l5 5v11a2 2 0 0 1-2 2z"/>
    <polyline points="17 21 17 13 7 13 7 21"/>
    <polyline points="7 3 7 8 15 8"/>
  </symbol>
  <symbol id="i-filter" viewBox="0 0 24 24" fill="none" stroke="currentColor" stroke-width="1.8" stroke-linecap="round" stroke-linejoin="round">
    <polygon points="22 3 2 3 10 12.46 10 19 14 21 14 12.46 22 3"/>
  </symbol>
  <symbol id="i-list" viewBox="0 0 24 24" fill="none" stroke="currentColor" stroke-width="1.8" stroke-linecap="round" stroke-linejoin="round">
    <line x1="8" y1="6" x2="21" y2="6"/>
    <line x1="8" y1="12" x2="21" y2="12"/>
    <line x1="8" y1="18" x2="21" y2="18"/>
    <line x1="3" y1="6" x2="3.01" y2="6"/>
    <line x1="3" y1="12" x2="3.01" y2="12"/>
    <line x1="3" y1="18" x2="3.01" y2="18"/>
  </symbol>
  <symbol id="i-inbox" viewBox="0 0 24 24" fill="none" stroke="currentColor" stroke-width="1.8" stroke-linecap="round" stroke-linejoin="round">
    <polyline points="22 12 16 12 14 15 10 15 8 12 2 12"/>
    <path d="M5.45 5.11L2 12v6a2 2 0 0 0 2 2h16a2 2 0 0 0 2-2v-6l-3.45-6.89A2 2 0 0 0 16.76 4H7.24a2 2 0 0 0-1.79 1.11z"/>
  </symbol>
  <symbol id="i-archive" viewBox="0 0 24 24" fill="none" stroke="currentColor" stroke-width="1.8" stroke-linecap="round" stroke-linejoin="round">
    <polyline points="21 8 21 21 3 21 3 8"/>
    <rect x="1" y="3" width="22" height="5"/>
    <line x1="10" y1="12" x2="14" y2="12"/>
  </symbol>
  <symbol id="i-activity" viewBox="0 0 24 24" fill="none" stroke="currentColor" stroke-width="1.8" stroke-linecap="round" stroke-linejoin="round">
    <polyline points="22 12 18 12 15 21 9 3 6 12 2 12"/>
  </symbol>
  <symbol id="i-arrow-up" viewBox="0 0 24 24" fill="none" stroke="currentColor" stroke-width="1.8" stroke-linecap="round" stroke-linejoin="round">
    <path d="M12 19V5"/>
    <path d="M5 12l7-7 7 7"/>
  </symbol>
  <symbol id="i-arrow-down" viewBox="0 0 24 24" fill="none" stroke="currentColor" stroke-width="1.8" stroke-linecap="round" stroke-linejoin="round">
    <path d="M12 5v14"/>
    <path d="M19 12l-7 7-7-7"/>
  </symbol>
  <symbol id="i-user-plus" viewBox="0 0 24 24" fill="none" stroke="currentColor" stroke-width="1.8" stroke-linecap="round" stroke-linejoin="round">
    <path d="M16 21v-2a4 4 0 0 0-4-4H5a4 4 0 0 0-4 4v2"/>
    <circle cx="8.5" cy="7" r="4"/>
    <line x1="20" y1="8" x2="20" y2="14"/>
    <line x1="23" y1="11" x2="17" y2="11"/>
  </symbol>
  <symbol id="i-user-minus" viewBox="0 0 24 24" fill="none" stroke="currentColor" stroke-width="1.8" stroke-linecap="round" stroke-linejoin="round">
    <path d="M16 21v-2a4 4 0 0 0-4-4H5a4 4 0 0 0-4 4v2"/>
    <circle cx="8.5" cy="7" r="4"/>
    <line x1="23" y1="11" x2="17" y2="11"/>
  </symbol>
  <symbol id="i-settings" viewBox="0 0 24 24" fill="none" stroke="currentColor" stroke-width="1.8" stroke-linecap="round" stroke-linejoin="round">
    <circle cx="12" cy="12" r="3"/>
    <path d="M19.4 15a1.65 1.65 0 0 0 .33 1.82l.06.06a2 2 0 0 1 0 2.83 2 2 0 0 1-2.83 0l-.06-.06a1.65 1.65 0 0 0-1.82-.33 1.65 1.65 0 0 0-1 1.51V21a2 2 0 0 1-2 2 2 2 0 0 1-2-2v-.09A1.65 1.65 0 0 0 9 19.4a1.65 1.65 0 0 0-1.82.33l-.06.06a2 2 0 0 1-2.83 0 2 2 0 0 1 0-2.83l.06-.06a1.65 1.65 0 0 0 .33-1.82 1.65 1.65 0 0 0-1.51-1H3a2 2 0 0 1-2-2 2 2 0 0 1 2-2h.09A1.65 1.65 0 0 0 4.6 9a1.65 1.65 0 0 0-.33-1.82l-.06-.06a2 2 0 0 1 0-2.83 2 2 0 0 1 2.83 0l.06.06a1.65 1.65 0 0 0 1.82.33H9a1.65 1.65 0 0 0 1-1.51V3a2 2 0 0 1 2-2 2 2 0 0 1 2 2v.09a1.65 1.65 0 0 0 1 1.51 1.65 1.65 0 0 0 1.82-.33l.06-.06a2 2 0 0 1 2.83 0 2 2 0 0 1 0 2.83l-.06.06a1.65 1.65 0 0 0-.33 1.82V9a1.65 1.65 0 0 0 1.51 1H21a2 2 0 0 1 2 2 2 2 0 0 1-2 2h-.09a1.65 1.65 0 0 0-1.51 1z"/>
  </symbol>
  <symbol id="i-chevrons-up" viewBox="0 0 24 24" fill="none" stroke="currentColor" stroke-width="1.8" stroke-linecap="round" stroke-linejoin="round">
    <polyline points="17 11 12 6 7 11"/>
    <polyline points="17 18 12 13 7 18"/>
  </symbol>
  <symbol id="i-chevrons-down" viewBox="0 0 24 24" fill="none" stroke="currentColor" stroke-width="1.8" stroke-linecap="round" stroke-linejoin="round">
    <polyline points="7 13 12 18 17 13"/>
    <polyline points="7 6 12 11 17 6"/>
  </symbol>
  <symbol id="i-more-h" viewBox="0 0 24 24" fill="none" stroke="currentColor" stroke-width="1.8" stroke-linecap="round" stroke-linejoin="round">
    <circle cx="12" cy="12" r="1"/>
    <circle cx="19" cy="12" r="1"/>
    <circle cx="5" cy="12" r="1"/>
  </symbol>
  <symbol id="i-more-v" viewBox="0 0 24 24" fill="none" stroke="currentColor" stroke-width="1.8" stroke-linecap="round" stroke-linejoin="round">
    <circle cx="12" cy="12" r="1"/>
    <circle cx="12" cy="5" r="1"/>
    <circle cx="12" cy="19" r="1"/>
  </symbol>
</svg>
