<?xml version="1.0" encoding="UTF-8"?>
<svg id="_" data-name="ͼ" xmlns="http://www.w3.org/2000/svg" xmlns:xlink="http://www.w3.org/1999/xlink" viewBox="0 0 529.73 118.75">
  <defs>
    <style>
      .cls-1 {
        fill: url(#GradientFill_2);
      }

      .cls-1, .cls-2, .cls-3 {
        stroke-width: 0px;
      }

      .cls-1, .cls-3 {
        fill-rule: evenodd;
      }

      .cls-2 {
        fill: #06c;
      }

      .cls-3 {
        fill: url(#GradientFill_1);
      }
    </style>
    <linearGradient id="GradientFill_1" data-name="GradientFill 1" x1="-50.82" y1="214.6" x2="110.5" y2="-184.67" gradientUnits="userSpaceOnUse">
      <stop offset="0" stop-color="#2ab2af"/>
      <stop offset="1" stop-color="#fff"/>
    </linearGradient>
    <linearGradient id="GradientFill_2" data-name="GradientFill 2" x1="48.73" y1="106.69" x2="95.26" y2="-2.92" gradientUnits="userSpaceOnUse">
      <stop offset="0" stop-color="#0077c3"/>
      <stop offset="1" stop-color="#00a4e4"/>
    </linearGradient>
  </defs>
  <g>
    <polygon class="cls-3" points="0 7 33.79 16.34 33.79 37.68 13.32 32.08 13.32 44.97 26.03 48.48 26.03 106.22 0 111.75 0 7"/>
    <polygon class="cls-1" points="41.2 0 103.76 17.28 103.76 17.89 103.76 61.65 82.57 65.57 103.76 90.29 103.76 100.86 103.76 101.47 41.2 118.75 41.2 83.59 41.2 52.7 58.16 57.76 58.16 44.78 41.2 39.72 41.2 35.16 41.2 0"/>
  </g>
  <g>
    <polygon class="cls-2" points="500.23 44.3 496.06 44.3 488.37 67.68 480.96 44.3 470.72 44.3 481.95 80.94 492.42 80.94 500.23 56.66 508.04 80.94 518.51 80.94 529.73 44.3 519.49 44.3 512.08 67.68 504.4 44.3 500.23 44.3"/>
    <path class="cls-2" d="M344.3,81.28l-10.4-17.56c.66-.2,1.62-.58,2.88-1.14,1.26-.56,2.54-1.42,3.83-2.58,1.29-1.16,2.41-2.65,3.37-4.47.96-1.82,1.44-4.1,1.44-6.83,0-2.22-.42-4.29-1.25-6.18-.83-1.9-2.01-3.53-3.53-4.89-1.52-1.37-3.33-2.44-5.42-3.22-2.1-.78-4.39-1.18-6.86-1.18h-23.74v48.05h10.92v-39.56h11.91c.86,0,1.69.19,2.5.57.81.38,1.54.9,2.2,1.56.66.66,1.18,1.43,1.55,2.31.38.88.57,1.83.57,2.84,0,1.06-.19,2.05-.57,2.96-.38.91-.9,1.68-1.55,2.31-.66.63-1.39,1.14-2.2,1.52-1.05.49-2.31.71-3.59.8v.03h-.53c-.36.02-.72.02-1.08.03-1.18.17-2.09,1.2-2.09,2.42v5.63l9.01,16.57h12.62Z"/>
    <path class="cls-2" d="M298.45,65.77v-3.19c0-2.73-.48-5.28-1.44-7.66-.96-2.38-2.28-4.43-3.94-6.14-1.67-1.72-3.65-3.07-5.95-4.06-2.3-.99-4.82-1.48-7.55-1.48s-5.41.51-7.74,1.52c-2.33,1.01-4.35,2.4-6.07,4.17-1.72,1.77-3.05,3.83-3.98,6.18-.94,2.35-1.4,4.84-1.4,7.47,0,2.83.51,5.44,1.52,7.81,1.01,2.38,2.4,4.42,4.17,6.14,1.77,1.72,3.86,3.05,6.26,3.98,2.4.93,4.99,1.4,7.77,1.4,1.11,0,2.35-.09,3.72-.27,1.37-.18,2.76-.49,4.17-.95,1.42-.46,2.79-1.08,4.13-1.86,1.34-.78,2.57-1.76,3.68-2.92l-4.93-5.69c-.66.66-1.4,1.23-2.24,1.71-.83.48-1.71.87-2.62,1.18-.91.3-1.81.53-2.69.68-.88.15-1.71.23-2.47.23-2.83,0-5.18-.77-7.05-2.31-4.28-3.53-5.04-10.73-2.73-15.59.51-1.06,1.15-2.01,1.93-2.84.78-.84,1.73-1.49,2.84-1.97,1.11-.48,2.4-.72,3.87-.72s2.86.25,4.02.76c1.16.5,2.14,1.17,2.92,2.01.78.84,1.4,1.78,1.86,2.84.45,1.06.76,2.15.91,3.26h-13.54v6.29h22.56Z"/>
    <polygon class="cls-2" points="213.49 44.3 202.87 44.3 194.09 65.48 185.31 44.3 174.69 44.3 188.75 78.37 183.06 92.08 193.77 92.08 213.49 44.3"/>
    <polygon class="cls-2" points="172.51 42.18 172.51 33.23 134.51 33.23 134.51 42.18 148.01 42.18 148.01 81.28 158.93 81.28 158.93 42.18 172.51 42.18"/>
    <path class="cls-2" d="M387.13,65.77v-3.19c0-2.73-.48-5.28-1.44-7.66-.96-2.38-2.28-4.43-3.94-6.14-1.67-1.72-3.65-3.07-5.95-4.06-2.3-.99-4.82-1.48-7.55-1.48s-5.41.51-7.74,1.52c-2.33,1.01-4.35,2.4-6.07,4.17-1.72,1.77-3.05,3.83-3.98,6.18-.94,2.35-1.4,4.84-1.4,7.47,0,2.83.51,5.44,1.52,7.81,1.01,2.38,2.4,4.42,4.17,6.14,1.77,1.72,3.86,3.05,6.26,3.98,2.4.93,4.99,1.4,7.77,1.4,1.11,0,2.35-.09,3.72-.27,1.37-.18,2.76-.49,4.17-.95,1.42-.46,2.79-1.08,4.13-1.86,1.34-.78,2.57-1.76,3.68-2.92l-4.93-5.69c-.66.66-1.4,1.23-2.24,1.71-.83.48-1.71.87-2.62,1.18-.91.3-1.81.53-2.69.68-.89.15-1.71.23-2.47.23-2.83,0-5.18-.77-7.05-2.31-4.28-3.53-5.04-10.73-2.73-15.59.5-1.06,1.15-2.01,1.93-2.84.78-.84,1.73-1.49,2.84-1.97,1.11-.48,2.4-.72,3.87-.72s2.86.25,4.02.76c1.16.5,2.14,1.17,2.92,2.01.78.84,1.4,1.78,1.86,2.84.45,1.06.76,2.15.91,3.26h-13.54v6.29h22.56Z"/>
    <path class="cls-2" d="M470.11,65.77v-3.19c0-2.73-.48-5.28-1.44-7.66-.96-2.38-2.28-4.43-3.94-6.14-1.67-1.72-3.65-3.07-5.95-4.06-2.3-.99-4.82-1.48-7.55-1.48s-5.41.51-7.74,1.52c-2.33,1.01-4.35,2.4-6.07,4.17-1.72,1.77-3.05,3.83-3.98,6.18-.94,2.35-1.4,4.84-1.4,7.47,0,2.83.51,5.44,1.52,7.81,1.01,2.38,2.4,4.42,4.17,6.14,1.77,1.72,3.86,3.05,6.26,3.98,2.4.93,4.99,1.4,7.77,1.4,1.11,0,2.35-.09,3.72-.27,1.37-.18,2.76-.49,4.17-.95,1.42-.46,2.79-1.08,4.13-1.86,1.34-.78,2.57-1.76,3.68-2.92l-4.93-5.69c-.66.66-1.4,1.23-2.24,1.71-.83.48-1.71.87-2.62,1.18-.91.3-1.81.53-2.69.68-.88.15-1.71.23-2.47.23-2.83,0-5.18-.77-7.05-2.31-4.28-3.53-5.04-10.73-2.73-15.59.51-1.06,1.15-2.01,1.93-2.84.78-.84,1.73-1.49,2.84-1.97,1.11-.48,2.4-.72,3.87-.72s2.86.25,4.02.76c1.16.5,2.14,1.17,2.92,2.01.78.84,1.4,1.78,1.86,2.84.45,1.06.76,2.15.91,3.26h-13.54v6.29h22.56Z"/>
    <path class="cls-2" d="M392.35,80.94v-25.03c0-17.88,34.81-17.88,34.81,0v25.03h-9.86v-23.53c0-9.49-15.09-9.49-15.09,0v23.53h-9.86Z"/>
    <path class="cls-2" d="M254.35,62.58c0-2.63-.45-5.11-1.36-7.43-.91-2.33-2.19-4.37-3.84-6.14-1.65-1.77-3.65-3.17-6.01-4.21-2.36-1.04-4.99-1.55-7.9-1.55s-5.51.52-7.82,1.55c-2.31,1.04-4.3,2.44-5.98,4.21-1.67,1.77-2.95,3.82-3.84,6.14-.89,2.33-1.33,4.8-1.33,7.43v29.5h9.86v-12.35c.43.23.87.44,1.32.64,2.34,1.04,4.96,1.56,7.86,1.56s5.52-.52,7.86-1.56c2.34-1.04,4.34-2.44,6.01-4.21,1.67-1.77,2.95-3.82,3.84-6.14.89-2.33,1.33-4.8,1.33-7.43h0ZM244.47,62.58c0,3.39-.81,6.13-2.43,8.23-1.62,2.1-3.89,3.15-6.79,3.15s-5.08-1.05-6.68-3.15c-1.6-2.1-2.4-4.84-2.4-8.23s.8-6.07,2.4-8.19c1.6-2.12,3.85-3.19,6.75-3.19s5.09,1.06,6.71,3.19c1.62,2.12,2.43,4.85,2.43,8.19Z"/>
  </g>
</svg>